<svg xmlns="http://www.w3.org/2000/svg" width="14" height="50.93">
  <path d="M6.5 7.43a3.72 3.72 0 1 0-3.71-3.72A3.71 3.71 0 0 0 6.5 7.43zm2.6.93h-.48a5.12 5.12 0 0 1-4.24 0H3.9a3.9 3.9 0 0 0-3.9 3.9v1.2a1.4 1.4 0 0 0 1.39 1.4h10.22a1.4 1.4 0 0 0 1.39-1.4v-1.2a3.9 3.9 0 0 0-3.9-3.9zM11.29 18a.13.13 0 0 1 .21.1v4.39a1 1 0 0 1-1 1H1.53a1 1 0 0 1-1-1v-4.36A.13.13 0 0 1 .71 18c.48.37 1.12.85 3.31 2.44a3.8 3.8 0 0 0 2 1 3.76 3.76 0 0 0 2-1c2.15-1.56 2.79-2.04 3.27-2.44zM6 20.8c.5 0 1.22-.62 1.58-.89 2.85-2.06 3.07-2.25 3.72-2.76a.51.51 0 0 0 .2-.41v-.41a1 1 0 0 0-1-1H1.53a1 1 0 0 0-1 1v.41a.51.51 0 0 0 .2.41c.66.51.87.7 3.72 2.76.33.27 1.05.9 1.55.89z"/>
  <path d="M8 26l3.5 3.5-7.6 7.6-3.12.34A.66.66 0 0 1 0 36.7l.35-3.12zm5.67-.52L12 23.81a1.31 1.31 0 0 0-1.85 0l-1.58 1.55 3.5 3.5 1.55-1.55a1.31 1.31 0 0 0 0-1.85zM12.62 38L.85 44.8a.61.61 0 0 0 .05 1.1L3.6 47l7.3-6.43a.15.15 0 0 1 .22.21L5 48.26v2.05a.61.61 0 0 0 1.08.4l1.61-2 3.17 1.33a.6.6 0 0 0 .83-.46l1.83-11a.61.61 0 0 0-.9-.58z"/>
</svg>
